<svg width="158" height="43" viewBox="0 0 158 43" fill="none" xmlns="http://www.w3.org/2000/svg">
<g clip-path="url(#clip0_7_1775)">
<path d="M53.44 34C53.792 34 53.952 33.808 53.952 33.488V25.424H57.792C60.8 25.424 62.4 23.792 62.4 20.816V13.008C62.4 9.99999 60.8 8.39999 57.792 8.39999H50.112C49.792 8.39999 49.6 8.59199 49.6 8.91199V33.488C49.6 33.808 49.792 34 50.112 34H53.44ZM56.768 21.2H53.952V12.624H56.768C57.632 12.624 58.048 13.072 58.048 13.904V19.92C58.048 20.72 57.632 21.2 56.768 21.2ZM69.44 34C69.76 34 69.952 33.808 69.952 33.488V25.424H72.16L74.304 33.552C74.368 33.84 74.528 34 74.848 34H78.176C78.528 34 78.72 33.808 78.624 33.424L76.416 25.04C77.952 24.368 78.752 22.96 78.752 20.816V13.008C78.752 9.99999 77.152 8.39999 74.144 8.39999H66.112C65.792 8.39999 65.6 8.59199 65.6 8.91199V33.488C65.6 33.808 65.792 34 66.112 34H69.44ZM73.12 21.2H69.952V12.624H73.12C73.952 12.624 74.4 13.072 74.4 13.904V19.92C74.4 20.752 73.952 21.2 73.12 21.2ZM85.792 34C86.112 34 86.304 33.808 86.304 33.488V8.91199C86.304 8.59199 86.112 8.39999 85.792 8.39999H82.464C82.112 8.39999 81.952 8.59199 81.952 8.91199V33.488C81.952 33.808 82.112 34 82.464 34H85.792ZM93.088 34C93.504 34 93.728 33.776 93.728 33.36V18.96H93.952L97.12 33.424C97.216 33.808 97.44 34 97.824 34H99.392C99.776 34 100 33.808 100.096 33.424L103.264 18.96H103.488V33.36C103.488 33.776 103.712 34 104.128 34H107.104C107.52 34 107.744 33.776 107.744 33.36V9.03999C107.744 8.62399 107.52 8.39999 107.104 8.39999H102.88C102.496 8.39999 102.272 8.59199 102.176 8.97599L98.624 24.912L95.072 8.97599C94.976 8.59199 94.752 8.39999 94.368 8.39999H90.144C89.728 8.39999 89.504 8.62399 89.504 9.03999V33.36C89.504 33.776 89.728 34 90.144 34H93.088ZM123.2 34C123.584 34 123.712 33.808 123.712 33.488V30.288C123.712 29.936 123.584 29.776 123.2 29.776H115.2V23.312H121.312C121.632 23.312 121.824 23.12 121.824 22.768V19.6C121.824 19.248 121.632 19.056 121.312 19.056H115.2V12.656H123.2C123.584 12.656 123.712 12.432 123.712 12.112V8.91199C123.712 8.59199 123.584 8.39999 123.2 8.39999H111.424C111.136 8.39999 110.944 8.59199 110.944 8.91199V33.488C110.944 33.808 111.136 34 111.424 34H123.2Z" fill="#303132"/>
<path d="M130.752 34C131.104 34 131.264 33.808 131.264 33.488V19.92H131.424L136.32 33.584C136.416 33.872 136.608 34 136.896 34H140.064C140.384 34 140.576 33.808 140.576 33.488V8.91199C140.576 8.59199 140.384 8.39999 140.064 8.39999H136.736C136.384 8.39999 136.224 8.59199 136.224 8.91199V22.416H136.032L131.168 8.81599C131.072 8.52799 130.88 8.39999 130.592 8.39999H127.424C127.104 8.39999 126.912 8.59199 126.912 8.91199V33.488C126.912 33.808 127.104 34 127.424 34H130.752ZM152.608 34C155.584 34 157.216 32.4 157.216 29.392V20.496C157.216 20.144 157.024 19.984 156.704 19.984H151.328C150.976 19.984 150.816 20.144 150.816 20.496V23.696C150.816 24.016 150.976 24.208 151.328 24.208H152.992V28.496C152.992 29.36 152.544 29.776 151.712 29.776H149.408C148.576 29.776 148.128 29.36 148.128 28.496V13.904C148.128 13.072 148.544 12.624 149.408 12.624H151.712C152.544 12.624 152.992 13.072 152.992 13.904V16.336C152.992 16.656 153.152 16.848 153.504 16.848H156.704C157.024 16.848 157.216 16.656 157.216 16.336V13.008C157.216 9.99999 155.584 8.39999 152.608 8.39999H148.384C145.376 8.39999 143.776 9.99999 143.776 13.008V29.392C143.776 32.4 145.376 34 148.384 34H152.608Z" fill="#E0002A"/>
<path d="M20.0047 0L0.0515137 7.08746L3.09486 33.3666L20.0047 42.6955L36.9146 33.3666L39.9579 7.08746L20.0047 0Z" fill="#DD0031"/>
<mask id="mask0_7_1775" style="mask-type:luminance" maskUnits="userSpaceOnUse" x="0" y="0" width="40" height="43">
<path d="M20.0047 0L0.0515137 7.08746L3.09486 33.3666L20.0047 42.6955L36.9146 33.3666L39.9579 7.08746L20.0047 0Z" fill="white"/>
</mask>
<g mask="url(#mask0_7_1775)">
<path fill-rule="evenodd" clip-rule="evenodd" d="M20.0047 0V4.73921V4.71786V26.3432V42.6955L36.9145 33.3666L39.9579 7.08746L20.0047 0Z" fill="#C3002F"/>
</g>
<path d="M25.8534 20.2491L23.9393 19.8239L25.428 21.95V28.5407L30.5323 24.2886V17.0601L28.1928 17.9105L25.8534 20.2491Z" fill="white"/>
<path d="M13.9434 20.2491L15.8575 19.8239L14.3687 21.95V28.5407L9.26444 24.2886V17.0601L11.6039 17.9105L13.9434 20.2491Z" fill="white"/>
<path fill-rule="evenodd" clip-rule="evenodd" d="M14.9859 22.349L16.6824 19.7926L17.7427 20.4317H21.984L23.0443 19.7926L24.7408 22.349V31.9355L23.4685 33.8528L21.984 35.344H17.7427L16.2583 33.8528L14.9859 31.9355V22.349Z" fill="white"/>
<path d="M25.428 32.5802L28.1929 29.8163V27.0525L25.428 29.3911V32.5802Z" fill="white"/>
<path d="M14.3687 32.5802L11.6039 29.8163V27.0525L14.3687 29.3911V32.5802Z" fill="white"/>
<path fill-rule="evenodd" clip-rule="evenodd" d="M20.3237 19.6113V7.49292H22.6632L24.3567 11.5159L32.2337 10.8946L30.9577 16.2097L21.8125 19.6113H20.3237ZM19.473 7.49292V19.6113H18.197L9.05177 16.2097L7.7757 10.8946L15.4387 11.5149L17.1336 7.49292H19.473Z" fill="white"/>
<path d="M24.79 10.8946L29.2562 10.4694L26.2787 7.49292H23.3012L24.79 10.8946Z" fill="white"/>
<path d="M15.0068 10.8946L10.5405 10.4694L13.518 7.49292H16.4955L15.0068 10.8946Z" fill="white"/>
</g>
<defs>
<clipPath id="clip0_7_1775">
<rect width="158" height="43" fill="white"/>
</clipPath>
</defs>
</svg>
