<svg width="253" height="68" viewBox="0 0 253 68" fill="none" xmlns="http://www.w3.org/2000/svg">
<path d="M112.601 51.8596C114.854 51.9719 117.077 51.3102 118.887 49.9884C120.467 48.7475 121.254 46.8468 121.247 44.2862C121.348 42.5514 120.809 40.8388 119.731 39.4604C118.67 38.2423 117.377 37.2387 115.925 36.5059C114.338 35.7079 112.697 35.0169 111.014 34.4377C109.295 33.8473 107.645 33.0781 106.094 32.1431C104.587 31.2345 103.29 30.0268 102.288 28.5976C101.181 26.8249 100.652 24.7636 100.771 22.6886C100.696 20.7598 101.136 18.8451 102.047 17.134C102.831 15.7326 103.951 14.5394 105.31 13.6575C106.656 12.7931 108.155 12.1819 109.729 11.8553C111.285 11.5165 112.874 11.3415 114.469 11.3333C115.664 11.3371 116.859 11.4193 118.043 11.5795C119.234 11.7228 120.41 11.9667 121.558 12.3083C122.524 12.5812 123.439 13.0034 124.27 13.5591C124.92 13.9417 125.331 14.6185 125.364 15.3613C125.319 15.9912 125.115 16.6002 124.772 17.134C124.457 17.746 123.814 18.1283 123.115 18.1189C122.687 18.1045 122.271 17.9787 121.91 17.7545C121.468 17.5083 120.905 17.2522 120.283 16.9666C119.516 16.6727 118.727 16.4389 117.923 16.2674C116.792 16.0011 115.631 15.8786 114.469 15.903C113.368 15.8945 112.27 16.0068 111.195 16.2378C110.251 16.4215 109.347 16.7647 108.524 17.2522C107.75 17.7445 107.117 18.4225 106.686 19.2219C106.204 20.1334 105.965 21.15 105.993 22.1764C105.911 23.6684 106.464 25.1269 107.519 26.2045C108.632 27.2397 109.92 28.0762 111.325 28.6764C112.832 29.3461 114.479 29.9863 116.236 30.5969C117.978 31.1972 119.632 32.0183 121.157 33.0393C122.707 34.0932 124.003 35.4682 124.952 37.0673C126.087 39.145 126.616 41.4897 126.479 43.843C126.532 45.7934 126.191 47.7348 125.475 49.5551C124.852 51.0814 123.884 52.4487 122.643 53.5536C121.398 54.63 119.932 55.4325 118.345 55.9073C116.566 56.4285 114.718 56.6841 112.862 56.6657C111.023 56.6838 109.191 56.4485 107.419 55.9664C105.953 55.5685 104.55 54.9718 103.252 54.1937C102.242 53.5976 101.345 52.8346 100.601 51.9384C100.057 51.3349 99.7295 50.5743 99.6666 49.7718C99.6954 49.0895 99.9451 48.4341 100.38 47.9006C100.651 47.3467 101.207 46.9805 101.833 46.9437C102.458 46.9069 103.055 47.2052 103.392 47.7233C103.976 48.3338 104.6 48.9062 105.26 49.4369C106.139 50.133 107.113 50.7064 108.152 51.1407C109.569 51.6777 111.083 51.9225 112.601 51.8596Z" fill="white"/>
<path fill-rule="evenodd" clip-rule="evenodd" d="M134.724 11.8973C134.377 12.2171 134.176 12.6657 134.167 13.1386L134.177 54.7942C134.154 55.376 134.468 55.9183 134.983 56.1857C135.519 56.5027 136.131 56.6687 136.754 56.6662C137.382 56.6733 138 56.5108 138.545 56.1957C139.059 55.9283 139.373 55.386 139.351 54.8042V38.7266H147.679C149.445 38.7386 151.202 38.4855 152.893 37.9758C154.464 37.5267 155.92 36.7413 157.162 35.6733C158.418 34.5272 159.389 33.1008 159.998 31.5087C160.717 29.522 161.055 27.4156 160.993 25.3019V24.7513C161.052 22.6248 160.714 20.5059 159.998 18.5045C158.859 15.342 156.26 12.9362 153.032 12.0575C151.371 11.569 149.648 11.3262 147.918 11.3367H136.266C135.698 11.3043 135.141 11.5068 134.724 11.8973ZM139.351 34.3819V16.0618L147.679 16.0118C149.873 15.8845 152.026 16.6533 153.649 18.1441C155.089 19.5723 155.809 21.7981 155.809 24.8214V25.5622C155.809 28.5455 155.089 30.7612 153.649 32.2095C152.038 33.7249 149.881 34.51 147.679 34.3819H139.351Z" fill="white"/>
<path d="M182.016 39.8598C181.807 40.3166 181.486 40.7035 181.089 40.9796C180.788 41.1805 180.442 41.2877 180.088 41.2895C179.757 41.2864 179.435 41.1786 179.161 40.9796C178.791 40.6905 178.494 40.3053 178.299 39.8598L169.677 22.0134V54.8068C169.698 55.3879 169.405 55.9294 168.926 56.1965C168.419 56.5103 167.843 56.6725 167.258 56.6664C166.676 56.6737 166.102 56.5113 165.598 56.1965C165.119 55.9294 164.827 55.3879 164.848 54.8068V13.8951C164.767 13.1426 165.034 12.3954 165.561 11.8955C166.057 11.5193 166.652 11.3232 167.258 11.3356C168.06 11.304 168.842 11.6045 169.446 12.1754C170.124 12.8865 170.688 13.7143 171.114 14.6249L180.134 33.2811L189.219 14.6249C189.645 13.7143 190.209 12.8865 190.888 12.1754C191.487 11.6051 192.267 11.3045 193.066 11.3356C193.673 11.3175 194.269 11.5141 194.763 11.8955C195.296 12.3913 195.567 13.1404 195.486 13.8951V54.8068C195.506 55.3879 195.214 55.9294 194.735 56.1965C193.71 56.8056 192.466 56.8018 191.444 56.1865C190.965 55.9194 190.672 55.3779 190.693 54.7968V22.2634L182.016 39.8598Z" fill="white"/>
<path d="M216.112 51.8765C218.364 51.9888 220.585 51.3268 222.394 50.0045C223.972 48.7631 224.762 46.8615 224.762 44.2999C224.859 42.5632 224.317 40.8501 223.236 39.4721C222.178 38.2559 220.89 37.2523 219.443 36.5164C217.854 35.7181 216.211 35.0268 214.526 34.4473C212.808 33.8567 211.16 33.0871 209.609 32.1517C208.103 31.2427 206.808 30.0346 205.806 28.6048C204.697 26.8324 204.165 24.7702 204.281 22.6933C204.209 20.7628 204.651 18.8473 205.565 17.1365C206.348 15.7344 207.468 14.5408 208.826 13.6585C210.175 12.7944 211.676 12.1831 213.252 11.8555C214.804 11.516 216.388 11.3409 217.978 11.3333C219.173 11.3371 220.367 11.4194 221.551 11.5796C222.744 11.724 223.922 11.968 225.073 12.3087C226.034 12.5836 226.945 13.0059 227.772 13.56C228.425 13.9401 228.836 14.6188 228.866 15.363C228.821 15.9931 228.618 16.6024 228.274 17.1365C227.963 17.7471 227.324 18.1297 226.628 18.1217C226.199 18.139 225.773 18.0438 225.394 17.8458C224.952 17.5995 224.39 17.3434 223.778 17.0576C223.011 16.7317 222.219 16.4649 221.41 16.2596C220.28 15.9932 219.12 15.8707 217.958 15.895C216.858 15.8871 215.761 15.9995 214.687 16.23C213.75 16.419 212.854 16.7656 212.037 17.2547C211.264 17.7472 210.632 18.4255 210.201 19.2252C209.719 20.137 209.481 21.154 209.509 22.1809C209.427 23.6736 209.979 25.1326 211.034 26.2106C212.145 27.2463 213.432 28.0832 214.837 28.6836C216.356 29.3404 217.995 29.9809 219.754 30.6049C221.491 31.2076 223.14 32.0289 224.661 33.0483C226.211 34.1056 227.509 35.4805 228.465 37.078C229.588 39.1601 230.112 41.5037 229.98 43.8565C230.033 45.8077 229.692 47.7499 228.976 49.571C228.354 51.0979 227.387 52.4658 226.147 53.5711C224.904 54.65 223.439 55.4531 221.852 55.9258C220.07 56.4418 218.22 56.6909 216.363 56.6648C214.522 56.6836 212.688 56.4481 210.914 55.9653C209.446 55.5651 208.041 54.9684 206.739 54.1918C205.735 53.5928 204.842 52.8297 204.1 51.9356C203.557 51.3318 203.229 50.5709 203.167 49.768C203.19 49.0845 203.441 48.4273 203.879 47.896C204.15 47.3419 204.706 46.9756 205.331 46.9388C205.956 46.902 206.553 47.2004 206.89 47.7187C207.473 48.3294 208.097 48.9021 208.756 49.433C209.636 50.1273 210.608 50.7007 211.646 51.1375C213.067 51.6842 214.587 51.9358 216.112 51.8765Z" fill="white"/>
<path d="M238.414 48.775H239.832C239.908 48.7709 239.98 48.8137 240.021 48.8871C240.066 48.9636 240.09 49.0538 240.089 49.1458C240.087 49.231 240.067 49.3142 240.028 49.3873C239.983 49.4584 239.91 49.5001 239.832 49.4994H238.414V52.1384H241.221C241.3 52.1163 241.383 52.1502 241.432 52.2247C241.479 52.3096 241.503 52.4087 241.5 52.5093C241.499 52.6 241.479 52.6891 241.439 52.768C241.395 52.8461 241.317 52.8919 241.236 52.8887H238.014C237.931 52.8896 237.85 52.8626 237.78 52.8111C237.706 52.7648 237.662 52.6743 237.667 52.5782V45.6445C237.662 45.5484 237.706 45.4579 237.78 45.4116C237.85 45.3601 237.931 45.3331 238.014 45.334H241.236C241.318 45.327 241.397 45.3737 241.439 45.4547C241.479 45.5336 241.499 45.6227 241.5 45.7135C241.503 45.814 241.479 45.9131 241.432 45.998C241.391 46.0762 241.315 46.1225 241.236 46.1188H238.414V48.775Z" fill="white"/>
<path fill-rule="evenodd" clip-rule="evenodd" d="M243.497 45.4295C243.448 45.4828 243.419 45.5574 243.417 45.6362L243.431 52.5787C243.43 52.676 243.475 52.7659 243.549 52.8113C243.627 52.8638 243.716 52.8906 243.806 52.8888C243.896 52.8886 243.984 52.862 244.063 52.8113C244.134 52.765 244.177 52.6746 244.173 52.5787V49.8999H245.362C245.61 49.8987 245.857 49.8582 246.096 49.7793C246.319 49.6994 246.524 49.5643 246.698 49.3831C246.879 49.1939 247.02 48.958 247.109 48.694C247.21 48.3627 247.258 48.0121 247.249 47.6604V47.5656C247.257 47.2112 247.21 46.858 247.109 46.5234C247.021 46.2606 246.883 46.0249 246.706 45.8343C246.537 45.6566 246.336 45.5269 246.118 45.4553C245.88 45.3713 245.633 45.3307 245.384 45.3348H243.718C243.636 45.3256 243.555 45.3604 243.497 45.4295ZM244.151 49.1764V46.1186H245.34C245.653 46.0965 245.96 46.2239 246.192 46.4717C246.42 46.7775 246.533 47.1778 246.507 47.5829V47.7121C246.532 48.1143 246.418 48.5114 246.192 48.8146C245.963 49.0692 245.655 49.2003 245.34 49.1764H244.151Z" fill="white"/>
<path d="M249.929 48.7596H251.34C251.418 48.7541 251.493 48.7967 251.536 48.8712C251.581 48.9473 251.605 49.037 251.604 49.1287C251.602 49.2134 251.582 49.2962 251.544 49.3691C251.496 49.4424 251.42 49.4842 251.34 49.4806H249.929V52.1073H252.736C252.816 52.1017 252.892 52.1482 252.932 52.2275C252.979 52.312 253.003 52.4107 253 52.5107C253 52.6024 252.977 52.6921 252.932 52.7682C252.892 52.8475 252.816 52.894 252.736 52.8884H249.514C249.431 52.8893 249.35 52.8625 249.28 52.8112C249.206 52.7651 249.162 52.675 249.167 52.5794V45.6437C249.162 45.5481 249.206 45.458 249.28 45.4119C249.35 45.3606 249.431 45.3337 249.514 45.3347H252.736C252.817 45.3245 252.895 45.3723 252.932 45.4548C252.977 45.5309 253 45.6207 253 45.7124C253.003 45.8124 252.979 45.9111 252.932 45.9956C252.889 46.0721 252.815 46.1177 252.736 46.1158H249.929V48.7596Z" fill="white"/>
<path fill-rule="evenodd" clip-rule="evenodd" d="M64.1956 22.5722L53.6197 7.46111L43.1208 1.70944L34.3524 0L26.2186 0.538333L16.883 3.77778L12.1334 6.89444L5.76866 13.5056L2.88433 17.6611L0.673011 22.5817L0 27.8328L0.499951 35.445L0.749926 40.2994L4.06691 46.3722L7.09546 52.5583L7.18199 52.6906L14.787 59.3017L20.9114 62.3333L28.4876 64.2222L37.1406 64.1372L46.0147 61.5872L54.8408 55.8167L61.8689 46.5233L61.9458 46.3628L65.1667 34.7272V34.5006L64.2821 22.7611L64.1956 22.5722ZM49.1682 24.0928L48.9279 17L56.6194 24.4233L49.1682 24.0928ZM51.7353 31.6861L56.8598 25.3489L49.3317 24.99L51.7353 31.6861ZM48.9759 15.9044L52.5333 10.9367C53.2928 13.345 55.3599 19.8617 56.5425 23.2144L48.9759 15.9044ZM48.3702 10.1717L48.7452 14.705L51.8603 10.3417L48.3702 10.1717ZM48.6394 25.7456L51.0238 32.3567L44.4091 35.4828L48.6394 25.7456ZM51.1296 43.9922V33.3011L44.2745 36.5311L51.1296 43.9922ZM37.1021 20.3339L30.0067 17.8028L35.8715 14.3178L37.1021 20.3339ZM37.1021 8.42444L36.6887 12.9767L46.082 9.84111L37.1021 8.42444ZM36.756 14.1667L47.0242 16.1122L38.0251 20.3622L36.756 14.1667ZM37.0733 21.25L29.4683 18.5489L30.6508 34.0661L37.0733 21.25ZM29.8048 35.1522L23.8246 33.8583L28.6318 20.0789L29.8048 35.1522ZM31.4104 13.6472L29.9586 16.7922L34.7466 13.94L31.4104 13.6472ZM35.7273 13.1372L32.1315 12.8256L36.0926 9.04778L35.7273 13.1372ZM25.4494 8.5L31.0739 12.6083L35.5734 8.36778L25.4494 8.5ZM28.6799 17.4722L20.4307 17.6517L30.3047 13.9778L28.6799 17.4722ZM23.2669 32.8006L28.3338 18.36L18.4597 18.6339L23.2669 32.8006ZM22.1805 32.3944L16.6041 26.5011L17.9309 19.89L22.1805 32.3944ZM9.32601 27.7856C11.0278 28.3333 17.306 31.0628 21.421 32.8761L15.8446 26.9828L9.21063 24.0078L9.32601 27.7856ZM21.5748 33.915L8.74914 35.3033C8.8549 32.1489 9.03757 29.4194 9.15295 28.645C10.5759 29.1078 16.133 31.5161 21.5748 33.915ZM17.9886 40.8944L22.3343 34.7272L9.67212 36.0872L17.9886 40.8944ZM22.9977 35.3317L24.738 46.0228L18.7289 41.3856L22.9977 35.3317ZM29.699 36.0306L23.815 34.7556L25.5648 45.475L29.699 36.0306ZM30.5451 36.2667L35.66 37.9383L26.4974 45.4939L30.5451 36.2667ZM46.2647 26.52L31.3431 35.5961L36.458 37.2583L46.2647 26.52ZM31.3431 34.5289L37.8617 21.5522L47.5915 24.6406L31.3431 34.5289ZM47.9376 16.6317L38.8327 20.9289L48.178 23.9039L47.9376 16.6317ZM37.8713 13.4961L47.4857 10.285L47.8991 15.3944L37.8713 13.4961ZM40.4864 3.91944L37.4963 7.55556L46.4089 8.96278L40.4864 3.91944ZM36.6118 7.225L31.8911 2.83333L39.5826 3.69278L36.6118 7.225ZM25.2667 7.65L35.5734 7.48944L30.6028 2.83333L25.2667 7.65ZM30.2086 13.0617L18.8924 17.2833L24.2284 8.78333L30.2086 13.0617ZM13.864 14.9789L17.7098 17.5289L22.7285 9.49167L13.864 14.9789ZM17.3444 18.3506L16.0561 24.6594L13.7583 15.98L17.3444 18.3506ZM9.35485 23.12L15.4216 25.8494L12.8833 16.2067L9.35485 23.12ZM11.72 16.5278L8.47032 22.8744L3.84578 22.61L11.72 16.5278ZM8.81644 13.7511L4.26881 21.1461L12.1334 15.1111L8.81644 13.7511ZM8.30688 23.7433L8.40302 27.1622L3.94192 23.4978L8.30688 23.7433ZM17.0656 41.395L8.653 36.5406L8.08574 44.7667L17.0656 41.395ZM16.6426 42.5L9.67212 50.5656L8.13381 45.6922L16.6426 42.5ZM19.1039 49.4322L17.8444 42.5L10.624 50.8394L19.1039 49.4322ZM19.2289 50.2917V51.2361L14.2486 51.1322L19.2289 50.2917ZM24.536 46.9294L18.7674 42.5L19.9692 49.1111L24.536 46.9294ZM22.1997 49.0072L20.0942 50.7544V50.0556L22.1997 49.0072ZM28.6222 54.7778L25.2091 47.7228L20.5268 51.5856L28.6222 54.7778ZM26.7762 48.8939L35.4869 56.7422L29.8048 55.2028L26.7762 48.8939ZM43.4861 54.2111L27.3819 48.2422L37.2656 57.1483L43.4861 54.2111ZM26.2378 46.8728L36.4387 38.4767L43.7361 53.3894L26.2378 46.8728ZM43.1592 36.89L37.2463 38.0517L44.0534 51.9539L43.1592 36.89ZM43.265 36.0022L37.8424 37.0789L47.2646 26.7844L43.265 36.0022ZM45.0148 52.9739L51.0431 45.1633L44.111 37.6172L45.0148 52.9739ZM51.7641 45.6922L56.6579 48.025L46.1493 53.0022L51.7641 45.6922ZM60.5902 41.3667L52.6583 45.1444L57.4943 47.4111L60.5902 41.3667ZM52.0718 44.4361V33.5089L60.7248 40.3467L52.0718 44.4361ZM63.8399 33.9244L57.8405 25.6794L52.466 32.2622L63.8399 33.9244ZM53.8409 11.8717L63.0707 22.6667L58.0231 24.4328C57.4463 23.0822 55.6003 17.4628 53.8409 11.8717ZM58.3212 15.7061L53.514 8.87778L53.2448 9.82222L58.3212 15.7061ZM52.8121 8.06556L52.4948 9.16111L47.2646 5.00556L52.8121 8.06556ZM48.1876 9.25556L51.3892 9.44444L44.7937 4.17444L48.1876 9.25556ZM45.784 7.27222L41.2459 3.40944L42.6881 2.635L45.784 7.27222ZM40.4479 2.83333L41.5344 2.25722L37.6982 1.52056L40.4479 2.83333ZM34.3909 0.944444L37.9001 2.61611L32.2084 1.96444L34.3909 0.944444ZM30.5739 1.77556L32.093 1.05778L28.8433 1.25611L30.5739 1.77556ZM26.257 1.46389L28.4972 2.10611L21.5844 3.05056L26.257 1.46389ZM24.0361 7.55556L29.2279 2.83333L18.479 4.42L24.0361 7.55556ZM17.2483 4.72222L22.892 7.93333L12.9987 10.2094L17.2483 4.72222ZM15.1524 5.98778L12.8833 7.47056L12.5949 9.27444L15.1524 5.98778ZM21.5363 9.14222L13.2391 14.2706L12.393 11.2483L21.5363 9.14222ZM9.50868 13.09L12.2969 14.2139L11.5662 11.6544L9.50868 13.09ZM11.6912 9.25556L11.47 10.6722L10.2201 11.5411L11.6912 9.25556ZM8.35495 12.8067L9.68174 10.7289L7.4608 13.0239L8.35495 12.8067ZM6.35514 14.1667L7.08584 13.9872L5.41293 15.555L6.35514 14.1667ZM6.56666 15.6872L3.47081 18.3128L3.13431 21.2594L6.56666 15.6872ZM2.96125 23.8L8.22996 28.1161L1.55754 34.255L2.96125 23.8ZM2.88433 18.8889L1.32679 22.8556L0.961444 26.095L2.10556 22.8461L2.88433 18.8889ZM0.874914 28.0783L1.74021 26.095L1.08643 31.0156L0.874914 28.0783ZM1.56715 38.7222L1.63445 40.1294L2.5286 41.7633L1.56715 38.7222ZM1.46139 35.5583L8.1915 29.3722C7.97998 31.4217 7.855 35.0389 7.83577 35.7094L4.48994 44.795L1.46139 35.5583ZM7.16276 45.0689L7.60502 38.93L5.17257 45.5411L7.16276 45.0689ZM7.27813 45.9472L8.47994 49.725L5.31678 46.41L7.27813 45.9472ZM8.73952 51.3211L6.15324 48.5917L7.69155 51.8028L8.73952 51.3211ZM8.31649 52.5017L9.34523 52.02L12.2296 55.93L8.31649 52.5017ZM18.8635 52.1144L10.3836 51.9444L15.0754 58.2156L18.8635 52.1144ZM15.7485 58.8294L19.3827 52.9833L20.5076 61.1717L15.7485 58.8294ZM20.3442 53.3611L21.469 61.5778L27.43 63.0133L20.3442 53.3611ZM28.1991 62.5789L20.9306 52.6528L29.0452 55.8544L28.1991 62.5789ZM36.1503 57.9039L29.9009 56.1567L29.0741 62.815L36.1503 57.9039ZM37.054 63.2211L29.9394 63.2872L37.1886 58.2628L41.8517 61.1906L37.054 63.2211ZM43.9476 55.0233L38.102 57.7811L42.5247 60.5672L43.9476 55.0233ZM45.0052 54.5228L55.0715 49.8006L43.6207 59.9439L45.0052 54.5228ZM44.9283 60.6711H45.8032L48.2356 59.0278L44.9283 60.6711ZM54.61 54.1356C54.5105 54.38 54.4306 54.5717 54.3674 54.7236C54.284 54.9238 54.2294 55.0548 54.1966 55.1461L53.8409 55.3161L45.5821 59.4056L56.5041 49.6778L54.61 54.1356ZM58.0231 48.3744L56.331 52.36L60.0806 47.43L58.0231 48.3744ZM61.0805 45.9472L58.6481 47.0711L61.0901 42.3489L61.0805 45.9472ZM62.042 40.545V42.8494L63.3111 38.2028L62.042 40.545ZM61.4651 39.78L53.2351 33.2822L64.1091 34.8783L61.4651 39.78ZM63.4553 23.4506L58.5808 25.1883L64.2244 32.9706L63.4553 23.4506Z" fill="white"/>
<rect x="83.8468" width="0.973076" height="68" fill="white"/>
</svg>
