<svg width="50" height="43" viewBox="0 0 50 43" fill="none" xmlns="http://www.w3.org/2000/svg">
<path fill-rule="evenodd" clip-rule="evenodd" d="M41.9256 29.3609C42.1357 29.2402 42.3104 29.0664 42.4322 28.8568C42.5539 28.6473 42.6184 28.4094 42.6192 28.1671L42.6441 20.1708C42.6449 19.9284 42.7094 19.6906 42.8311 19.481C42.9529 19.2715 43.1276 19.0976 43.3377 18.9769L47.6723 16.487C47.8824 16.3664 48.1205 16.3031 48.3628 16.3035C48.605 16.3039 48.8429 16.368 49.0526 16.4893C49.2623 16.6107 49.4364 16.785 49.5574 16.9949C49.6784 17.2047 49.7422 17.4427 49.7422 17.685V32.2226C49.7422 32.4656 49.678 32.7044 49.5562 32.9147C49.4345 33.125 49.2593 33.2995 49.0486 33.4206L32.6898 42.8166C32.4809 42.9365 32.2442 42.9998 32.0033 43C31.7624 43.0002 31.5256 42.9375 31.3164 42.818L18.4784 35.4752C18.2669 35.3544 18.0911 35.1799 17.9688 34.9693C17.8465 34.7586 17.782 34.5194 17.782 34.2759V26.9456C17.782 26.9373 17.7916 26.9318 17.7999 26.9359C17.8068 26.9401 17.8165 26.9359 17.8165 26.9263V26.918C17.8165 26.9124 17.8193 26.9069 17.8248 26.9041L28.3981 20.8299C28.4077 20.8244 28.4036 20.8092 28.3925 20.8092C28.3896 20.8092 28.3868 20.808 28.3847 20.8059C28.3827 20.8039 28.3815 20.801 28.3815 20.7981L28.4022 13.6115C28.4032 13.3685 28.34 13.1296 28.2192 12.9187C28.0983 12.7079 27.9239 12.5327 27.7137 12.4108C27.5035 12.2888 27.2648 12.2245 27.0218 12.2243C26.7788 12.224 26.54 12.2879 26.3296 12.4094L18.4715 16.9375C18.2617 17.0582 18.024 17.1218 17.782 17.1218C17.5399 17.1218 17.3022 17.0582 17.0925 16.9375L9.20948 12.3984C8.99946 12.2774 8.76133 12.2139 8.51899 12.214C8.27664 12.2142 8.03861 12.2781 7.82876 12.3993C7.61892 12.5206 7.44465 12.6949 7.32344 12.9047C7.20224 13.1146 7.13835 13.3526 7.13821 13.595V26.5836C7.13837 26.8257 7.07493 27.0635 6.95423 27.2734C6.83354 27.4833 6.65982 27.6577 6.45049 27.7793C6.24115 27.9009 6.00355 27.9654 5.76146 27.9663C5.51937 27.9671 5.2813 27.9044 5.07109 27.7843L0.696412 25.2833C0.48452 25.1623 0.30846 24.9873 0.186138 24.7761C0.063815 24.565 -0.000407208 24.3252 1.94281e-06 24.0812L0.0386914 1.37876C0.039218 1.13674 0.103306 0.899094 0.22454 0.689621C0.345774 0.480148 0.519901 0.306193 0.729494 0.185166C0.939087 0.0641399 1.17679 0.000287755 1.41882 9.70323e-07C1.66084 -0.000285814 1.8987 0.0630028 2.10858 0.183532L17.0938 8.79056C17.3032 8.91081 17.5405 8.97409 17.782 8.97409C18.0234 8.97409 18.2607 8.91081 18.4701 8.79056L33.4512 0.183532C33.6614 0.0628285 33.8996 -0.000465155 34.142 4.18235e-06C34.3844 0.00047352 34.6224 0.0646893 34.8321 0.186206C35.0418 0.307723 35.2158 0.482266 35.3368 0.692315C35.4577 0.902364 35.5213 1.14053 35.5211 1.38291V24.0909C35.5212 24.3338 35.4572 24.5724 35.3357 24.7828C35.2142 24.9931 35.0393 25.1676 34.8288 25.2889L26.9831 29.8072C26.7724 29.9287 26.5975 30.1037 26.476 30.3144C26.3546 30.5252 26.2909 30.7643 26.2915 31.0075C26.292 31.2508 26.3568 31.4895 26.4792 31.6997C26.6016 31.9099 26.7774 32.0841 26.9887 32.2046L31.3164 34.6683C31.5255 34.7874 31.7621 34.8497 32.0028 34.8493C32.2434 34.8488 32.4798 34.7854 32.6885 34.6655L41.9256 29.3609ZM42.8334 8.99091C42.8336 9.23528 42.8986 9.47521 43.0217 9.68627C43.1449 9.89732 43.3218 10.0719 43.5345 10.1923C43.7471 10.3127 43.9879 10.3745 44.2323 10.3715C44.4766 10.3685 44.7158 10.3007 44.9254 10.1751L49.0707 7.68791C49.2753 7.56529 49.4447 7.39178 49.5624 7.18426C49.6801 6.97674 49.742 6.7423 49.7422 6.50373V1.43541C49.7418 1.19117 49.6766 0.951405 49.5534 0.740546C49.4301 0.529688 49.2531 0.355269 49.0405 0.235059C48.8279 0.114849 48.5872 0.0531438 48.343 0.0562287C48.0988 0.0593136 47.8597 0.127079 47.6502 0.252621L43.5049 2.7398C43.3003 2.86242 43.1309 3.03593 43.0132 3.24345C42.8955 3.45097 42.8336 3.68541 42.8334 3.92398V8.99091Z" fill="#0099CC"/>
</svg>
